<svg width="332" height="476" viewBox="0 0 332 476" fill="none" xmlns="http://www.w3.org/2000/svg">
<path d="M330.064 82.5078L237.656 135.859V474.565H330.064V82.5078Z" fill="#F5F5F5"/>
<path d="M237.656 136.017L144.977 82.5083L237.656 29L330.335 82.5083L237.656 136.017Z" fill="#353535"/>
<path d="M144.977 274.5V82.5083M144.977 82.5083L237.656 136.017L330.335 82.5083L237.656 29L144.977 82.5083Z" stroke="#F5F5F5"/>
<rect x="0.433013" y="0.25" width="25.357" height="46.4426" transform="matrix(0.866025 -0.5 2.20305e-08 1 247.019 154.517)" fill="#353535" stroke="#F5F5F5"/>
<path d="M269.666 188.599L261.435 183.847M261.435 183.847L246.867 192.257M261.435 183.847V145.918" stroke="#F5F5F5"/>
<rect x="0.433013" y="0.25" width="25.357" height="46.4426" transform="matrix(0.866025 -0.5 2.20305e-08 1 246.96 226.689)" fill="#353535" stroke="#F5F5F5"/>
<path d="M269.604 260.771L261.372 256.019M261.372 256.019L246.805 264.429M261.372 256.019V218.09" stroke="#F5F5F5"/>
<rect x="0.433013" y="0.25" width="25.357" height="46.4426" transform="matrix(0.866025 -0.5 2.20305e-08 1 274.093 138.279)" fill="#353535" stroke="#F5F5F5"/>
<path d="M296.736 172.361L288.505 167.609M288.505 167.609L273.938 176.019M288.505 167.609V129.68" stroke="#F5F5F5"/>
<rect x="0.433013" y="0.25" width="25.357" height="46.4426" transform="matrix(0.866025 -0.5 2.20305e-08 1 274.093 210.228)" fill="#353535" stroke="#F5F5F5"/>
<path d="M296.736 244.31L288.505 239.558M288.505 239.558L273.938 247.968M288.505 239.558V201.629" stroke="#F5F5F5"/>
<rect x="0.433013" y="0.25" width="25.357" height="46.4426" transform="matrix(0.866025 -0.5 2.20305e-08 1 301.531 122.424)" fill="#353535" stroke="#F5F5F5"/>
<path d="M324.174 156.505L315.943 151.753M315.943 151.753L301.375 160.164M315.943 151.753V113.824" stroke="#F5F5F5"/>
<rect x="0.433013" y="0.25" width="25.357" height="46.4426" transform="matrix(0.866025 -0.5 2.20305e-08 1 301.531 194.373)" fill="#353535" stroke="#F5F5F5"/>
<path d="M324.174 228.455L315.943 223.702M315.943 223.702L301.375 232.113M315.943 223.702V185.773" stroke="#F5F5F5"/>
<rect width="13.2732" height="50.7845" transform="matrix(0.866025 0.5 -0.866025 0.5 257.859 66.3516)" fill="#F5F5F5"/>
<path d="M226.911 63.1969C226.867 63.1724 226.823 63.1471 226.779 63.1207L215.239 56.4581C211.76 51.058 205.732 38.7453 217.284 19.8773C228.836 1.00924 242.313 -0.178029 247.608 1.58684L258.678 7.84423C267.342 11.2135 266.38 28.5412 262.529 37.205C258.678 45.8689 253.865 52.6075 250.496 55.4955C247.127 58.3834 238.944 67.0476 226.911 63.1969Z" fill="white"/>
<path d="M226.911 63.1969C222.9 60.9507 215.996 50.673 223.312 31.8049C232.457 8.21991 250.015 4.47494 258.678 7.84423M226.911 63.1969C238.944 67.0476 247.127 58.3834 250.496 55.4955C253.865 52.6075 258.678 45.8689 262.529 37.205C266.38 28.5412 267.342 11.2135 258.678 7.84423M226.911 63.1969L215.239 56.4581C211.76 51.058 205.732 38.7453 217.284 19.8773C228.836 1.00924 242.313 -0.178029 247.608 1.58684L258.678 7.84423" stroke="#353535"/>
<path d="M219.942 49.6142L210.797 44.3346M225.237 26.9918L216.091 21.7118M238.233 11.1076L229.569 6.10547" stroke="#353535"/>
<circle cx="21.596" cy="21.596" r="21.096" transform="matrix(0.866025 -0.5 2.20305e-08 1 224.758 24.5234)" stroke="#353535"/>
<path d="M93.4523 316.384L1.07812 263.051M1.07812 263.051V475.828M1.07812 263.051L62.9658 227.32L155.645 280.829" stroke="#F5F5F5"/>
<path d="M155.951 280.301L93.4531 316.384V475.828H155.951V280.301Z" fill="#F5F5F5"/>
<rect x="-0.433013" y="0.25" width="25.357" height="46.4426" transform="matrix(-0.866025 -0.5 -2.20305e-08 1 83.6021 335.053)" fill="#353535" stroke="#F5F5F5"/>
<path d="M61.7089 369.568L69.9402 364.816M69.9402 364.816L84.5078 373.226M69.9402 364.816V326.887" stroke="#F5F5F5"/>
<rect x="-0.433013" y="0.25" width="25.357" height="46.4426" transform="matrix(-0.866025 -0.5 -2.20305e-08 1 83.6646 407.225)" fill="#353535" stroke="#F5F5F5"/>
<path d="M61.7714 441.74L70.0027 436.988M70.0027 436.988L84.5703 445.398M70.0027 436.988V399.059" stroke="#F5F5F5"/>
<rect x="-0.433013" y="0.25" width="25.357" height="46.4426" transform="matrix(-0.866025 -0.5 -2.20305e-08 1 56.5318 318.815)" fill="#353535" stroke="#F5F5F5"/>
<path d="M34.6386 353.33L42.8699 348.577M42.8699 348.577L57.4375 356.988M42.8699 348.577V310.648" stroke="#F5F5F5"/>
<rect x="-0.433013" y="0.25" width="25.357" height="46.4426" transform="matrix(-0.866025 -0.5 -2.20305e-08 1 56.5318 390.764)" fill="#353535" stroke="#F5F5F5"/>
<path d="M34.6386 425.279L42.8699 420.527M42.8699 420.527L57.4375 428.937M42.8699 420.527V382.598" stroke="#F5F5F5"/>
<rect x="-0.433013" y="0.25" width="25.357" height="46.4426" transform="matrix(-0.866025 -0.5 -2.20305e-08 1 29.0943 302.959)" fill="#353535" stroke="#F5F5F5"/>
<path d="M7.20107 337.474L15.4324 332.722M15.4324 332.722L30 341.132M15.4324 332.722V294.793" stroke="#F5F5F5"/>
<rect x="-0.433013" y="0.25" width="25.357" height="46.4426" transform="matrix(-0.866025 -0.5 -2.20305e-08 1 29.0943 374.908)" fill="#353535" stroke="#F5F5F5"/>
<path d="M7.20107 409.423L15.4324 404.671M15.4324 404.671L30 413.082M15.4324 404.671V366.742" stroke="#F5F5F5"/>
<rect width="13.2732" height="50.7845" transform="matrix(-0.866025 0.5 0.866025 0.5 62.5703 252.32)" fill="#F5F5F5"/>
<path d="M90.7385 260.041C90.7792 260.018 90.8202 259.994 90.8616 259.97L101.63 253.752C104.876 248.713 110.502 237.223 99.7219 219.616C88.9419 202.009 76.3651 200.901 71.4242 202.548L61.0935 208.387C53.0085 211.531 53.9069 227.701 57.5002 235.786C61.0935 243.871 65.5851 250.159 68.7293 252.854C71.8734 255.549 79.5095 263.634 90.7385 260.041Z" fill="white"/>
<path d="M90.7385 260.041C94.4815 257.945 100.924 248.354 94.0965 230.747C85.5624 208.737 69.1784 205.243 61.0935 208.387M90.7385 260.041C79.5095 263.634 71.8734 255.549 68.7293 252.854C65.5851 250.159 61.0935 243.871 57.5002 235.786C53.9069 227.701 53.0085 211.531 61.0935 208.387M90.7385 260.041L101.63 253.752C104.876 248.713 110.502 237.223 99.7219 219.616C88.9419 202.009 76.3651 200.901 71.4242 202.548L61.0935 208.387" stroke="#353535"/>
<path d="M97.2393 247.367L105.773 242.44M92.2985 226.256L100.833 221.329M80.1711 211.433L88.256 206.766" stroke="#353535"/>
<circle cx="20.1529" cy="20.1529" r="19.6529" transform="matrix(-0.866025 -0.5 -2.20305e-08 1 92.75 223.949)" stroke="#353535"/>
<path d="M62.0781 252L62.0781 268" stroke="#353535"/>
<path d="M258.078 66L258.078 83" stroke="#353535"/>
<path d="M216.078 122L216.078 472" stroke="#F5F5F5"/>
<path d="M113.078 303L113.078 472" stroke="#353535"/>
<path d="M196.078 111V473" stroke="#F5F5F5"/>
</svg>
