<svg width="475" height="469" viewBox="0 0 475 469" fill="none" xmlns="http://www.w3.org/2000/svg">
<circle cx="123.382" cy="123.382" r="123.382" transform="matrix(0.869412 -0.494088 0.862599 0.505889 0 308.426)" fill="#4A6FFE"/>
<circle cx="123.382" cy="123.382" r="122.882" transform="matrix(0.869412 -0.494088 0.862599 0.505889 0.238281 273.781)" fill="#F5F5F5" stroke="#4A6FFE"/>
<mask id="path-3-inside-1_6082_12499" fill="white">
<path d="M213.118 0.665187C267.039 1.03279 310.453 45.0427 310.085 98.9638C309.925 122.491 301.455 144.016 287.48 160.778C269.292 191.211 253.925 225.019 247.704 240.27L178.416 239.798C173.561 222.866 152.827 186.418 136.896 160.137C122.96 143.129 114.658 121.34 114.819 97.6335C115.187 43.7122 159.197 0.297816 213.118 0.665187Z"/>
</mask>
<path d="M213.118 0.665187C267.039 1.03279 310.453 45.0427 310.085 98.9638C309.925 122.491 301.455 144.016 287.48 160.778C269.292 191.211 253.925 225.019 247.704 240.27L178.416 239.798C173.561 222.866 152.827 186.418 136.896 160.137C122.96 143.129 114.658 121.34 114.819 97.6335C115.187 43.7122 159.197 0.297816 213.118 0.665187Z" fill="#EDEFFA"/>
<path d="M213.118 0.665187L213.125 -0.33479L213.125 -0.33479L213.118 0.665187ZM310.085 98.9638L311.085 98.9707L310.085 98.9638ZM287.48 160.778L286.712 160.138L286.662 160.198L286.622 160.265L287.48 160.778ZM247.704 240.27L247.697 241.27L248.374 241.274L248.63 240.647L247.704 240.27ZM178.416 239.798L177.454 240.073L177.661 240.792L178.409 240.798L178.416 239.798ZM136.896 160.137L137.751 159.619L137.714 159.558L137.669 159.503L136.896 160.137ZM114.819 97.6335L113.819 97.6267L114.819 97.6335ZM213.118 0.665187L213.111 1.66516C266.48 2.029 309.449 45.5882 309.085 98.957L310.085 98.9638L311.085 98.9707C311.456 44.4973 267.598 0.0365804 213.125 -0.33479L213.118 0.665187ZM310.085 98.9638L309.085 98.957C308.926 122.244 300.544 143.547 286.712 160.138L287.48 160.778L288.248 161.418C302.366 144.485 310.923 122.737 311.085 98.9707L310.085 98.9638ZM287.48 160.778L286.622 160.265C268.401 190.752 253.013 224.608 246.778 239.892L247.704 240.27L248.63 240.647C254.837 225.43 270.183 191.67 288.338 161.291L287.48 160.778ZM247.704 240.27L247.711 239.27L178.422 238.798L178.416 239.798L178.409 240.798L247.697 241.27L247.704 240.27ZM178.416 239.798L179.377 239.522C176.916 230.94 170.469 217.508 162.691 203.001C154.898 188.466 145.722 172.768 137.751 159.619L136.896 160.137L136.041 160.655C144.001 173.787 153.158 189.453 160.928 203.946C168.713 218.466 175.06 231.724 177.454 240.073L178.416 239.798ZM136.896 160.137L137.669 159.503C123.876 142.669 115.659 121.104 115.819 97.6403L114.819 97.6335L113.819 97.6267C113.656 121.575 122.044 143.589 136.122 160.771L136.896 160.137ZM114.819 97.6335L115.819 97.6403C116.183 44.2713 159.742 1.30156 213.111 1.66516L213.118 0.665187L213.125 -0.33479C158.651 -0.705924 114.19 43.1531 113.819 97.6267L114.819 97.6335Z" fill="#4A6FFE" mask="url(#path-3-inside-1_6082_12499)"/>
<path d="M239.571 256.283C254.401 264.98 254.307 278.917 239.36 287.412C224.413 295.906 200.272 295.742 185.442 287.044C170.613 278.347 170.708 264.41 185.655 255.916C200.602 247.421 224.741 247.586 239.571 256.283Z" fill="#F5F5F5" stroke="#4A6FFE"/>
<path d="M239.657 243.681C254.487 252.379 254.392 266.316 239.446 274.81C224.499 283.305 200.358 283.14 185.528 274.443C170.699 265.745 170.794 251.808 185.741 243.314C200.688 234.82 224.827 234.984 239.657 243.681Z" fill="#4A6FFE" stroke="#4A6FFE"/>
<path d="M239.786 224.787C254.616 233.484 254.521 247.421 239.575 255.915C224.627 264.41 200.487 264.246 185.657 255.548C170.828 246.851 170.923 232.914 185.87 224.419C200.817 215.925 224.956 216.09 239.786 224.787Z" fill="#F5F5F5" stroke="#4A6FFE"/>
<path d="M211.515 235.299L212.202 134.517M212.202 134.517L254.887 110.259M212.202 134.517L169.852 109.68" stroke="#4A6FFE"/>
<path d="M434.143 314.005L473.771 337.276L473.372 395.852L433.431 418.581L393.804 395.31L394.203 336.734L434.143 314.005Z" fill="#B1BFF9"/>
<path d="M473.771 337.276L434.143 314.005L394.203 336.734M473.771 337.276L433.83 360.004M473.771 337.276L473.372 395.852L433.431 418.581M433.83 360.004L394.203 336.734M433.83 360.004L433.431 418.581M394.203 336.734L393.804 395.31L433.431 418.581" stroke="#4A6FFE"/>
<path d="M342.213 291.457L409.014 330.663L408.341 429.352L341.013 467.644L274.212 428.438L274.884 329.749L342.213 291.457Z" fill="#B1BFF9"/>
<path d="M409.014 330.663L342.213 291.457L274.884 329.749M409.014 330.663L341.685 368.955M409.014 330.663L408.341 429.352L341.013 467.644M341.685 368.955L274.884 329.749M341.685 368.955L341.013 467.644M274.884 329.749L274.212 428.438L341.013 467.644" stroke="#4A6FFE"/>
</svg>
