<svg width="1482" height="673" viewBox="0 0 1482 673" fill="none" xmlns="http://www.w3.org/2000/svg">
<path d="M1 419.976L48 392.84L214 297L837 656.689" stroke="white"/>
<path d="M367.731 451.164L408.391 474.639V483.062L291.118 550.77L250.457 527.294V518.872L367.731 451.164Z" fill="white"/>
<path d="M291.118 542.347L408.391 474.639M291.118 542.347L252.401 519.994L250.457 518.872M291.118 542.347V550.77M408.391 474.639L367.731 451.164L250.457 518.872M408.391 474.639V483.062L291.118 550.77M250.457 518.872V527.294L291.118 550.77" stroke="#4A6FFE" stroke-width="0.778901"/>
<path d="M360.605 462.302L361.586 458.379H375.877L377.418 462.302L370.553 466.266C369.526 466.858 368.07 466.513 367.471 466.266L360.605 462.302Z" fill="#F5F5F5"/>
<rect x="0.291729" width="8.91018" height="8.91018" rx="1.85273" transform="matrix(0.866025 -0.5 0.866025 0.5 360.785 458.525)" fill="white" stroke="#4A6FFE" stroke-width="0.33686"/>
<path d="M370.32 468.134L371.301 464.211H385.592L387.133 468.134L380.268 472.098C379.241 472.691 377.785 472.345 377.186 472.098L370.32 468.134Z" fill="#F5F5F5"/>
<rect x="0.291729" width="8.91018" height="8.91018" rx="1.85273" transform="matrix(0.866025 -0.5 0.866025 0.5 370.5 464.357)" fill="white" stroke="#4A6FFE" stroke-width="0.33686"/>
<path d="M380.688 473.966L381.668 470.043H395.959L397.5 473.966L390.635 477.93C389.608 478.523 388.152 478.177 387.553 477.93L380.688 473.966Z" fill="#F5F5F5"/>
<rect x="0.291729" width="8.91018" height="8.91018" rx="1.85273" transform="matrix(0.866025 -0.5 0.866025 0.5 380.867 470.189)" fill="white" stroke="#4A6FFE" stroke-width="0.33686"/>
<path d="M350.887 467.485L351.867 463.562H366.158L367.7 467.485L360.834 471.449C359.807 472.042 358.351 471.696 357.752 471.449L350.887 467.485Z" fill="#F5F5F5"/>
<rect x="0.291729" width="8.91018" height="8.91018" rx="1.85273" transform="matrix(0.866025 -0.5 0.866025 0.5 351.066 463.708)" fill="white" stroke="#4A6FFE" stroke-width="0.33686"/>
<path d="M360.605 473.318L361.586 469.395H375.877L377.418 473.318L370.553 477.281C369.526 477.874 368.07 477.528 367.471 477.281L360.605 473.318Z" fill="#F5F5F5"/>
<rect x="0.291729" width="8.91018" height="8.91018" rx="1.85273" transform="matrix(0.866025 -0.5 0.866025 0.5 360.785 469.54)" fill="white" stroke="#4A6FFE" stroke-width="0.33686"/>
<path d="M370.969 479.146L371.949 475.223H386.24L387.782 479.146L380.916 483.109C379.889 483.702 378.433 483.356 377.834 483.109L370.969 479.146Z" fill="#F5F5F5"/>
<rect x="0.291729" width="8.91018" height="8.91018" rx="1.85273" transform="matrix(0.866025 -0.5 0.866025 0.5 371.148 475.369)" fill="white" stroke="#4A6FFE" stroke-width="0.33686"/>
<path d="M341.812 472.669L342.793 468.746H357.084L358.625 472.669L351.76 476.633C350.733 477.226 349.277 476.88 348.678 476.633L341.812 472.669Z" fill="#F5F5F5"/>
<rect x="0.291729" width="8.91018" height="8.91018" rx="1.85273" transform="matrix(0.866025 -0.5 0.866025 0.5 341.992 468.892)" fill="white" stroke="#4A6FFE" stroke-width="0.33686"/>
<path d="M351.531 478.497L352.512 474.574H366.803L368.344 478.497L361.479 482.461C360.452 483.054 358.996 482.708 358.396 482.461L351.531 478.497Z" fill="#F5F5F5"/>
<rect x="0.291729" width="8.91018" height="8.91018" rx="1.85273" transform="matrix(0.866025 -0.5 0.866025 0.5 351.711 474.72)" fill="white" stroke="#4A6FFE" stroke-width="0.33686"/>
<path d="M361.898 484.333L362.879 480.41H377.17L378.711 484.333L371.846 488.297C370.819 488.89 369.363 488.544 368.764 488.297L361.898 484.333Z" fill="#F5F5F5"/>
<rect x="0.291729" width="8.91018" height="8.91018" rx="1.85273" transform="matrix(0.866025 -0.5 0.866025 0.5 362.078 480.556)" fill="white" stroke="#4A6FFE" stroke-width="0.33686"/>
<path d="M332.742 477.853L333.723 473.93H348.014L349.555 477.853L342.69 481.816C341.663 482.409 340.207 482.063 339.607 481.816L332.742 477.853Z" fill="#F5F5F5"/>
<rect x="0.291729" width="8.91018" height="8.91018" rx="1.85273" transform="matrix(0.866025 -0.5 0.866025 0.5 332.922 474.076)" fill="white" stroke="#4A6FFE" stroke-width="0.33686"/>
<path d="M342.461 483.685L343.442 479.762H357.733L359.274 483.685L352.409 487.648C351.381 488.241 349.926 487.895 349.326 487.648L342.461 483.685Z" fill="#F5F5F5"/>
<rect x="0.291729" width="8.91018" height="8.91018" rx="1.85273" transform="matrix(0.866025 -0.5 0.866025 0.5 342.641 479.908)" fill="white" stroke="#4A6FFE" stroke-width="0.33686"/>
<path d="M352.828 489.513L353.809 485.59H368.1L369.641 489.513L362.776 493.476C361.749 494.069 360.293 493.724 359.693 493.476L352.828 489.513Z" fill="#F5F5F5"/>
<rect x="0.291729" width="8.91018" height="8.91018" rx="1.85273" transform="matrix(0.866025 -0.5 0.866025 0.5 353.008 485.736)" fill="white" stroke="#4A6FFE" stroke-width="0.33686"/>
<path d="M323.672 483.036L324.653 479.113H338.943L340.485 483.036L333.619 487C332.592 487.593 331.137 487.247 330.537 487L323.672 483.036Z" fill="#F5F5F5"/>
<rect x="0.291729" width="8.91018" height="8.91018" rx="1.85273" transform="matrix(0.866025 -0.5 0.866025 0.5 323.852 479.259)" fill="white" stroke="#4A6FFE" stroke-width="0.33686"/>
<path d="M333.391 488.864L334.371 484.941H348.662L350.203 488.864L343.338 492.828C342.311 493.421 340.855 493.075 340.256 492.828L333.391 488.864Z" fill="#F5F5F5"/>
<rect x="0.291729" width="8.91018" height="8.91018" rx="1.85273" transform="matrix(0.866025 -0.5 0.866025 0.5 333.57 485.087)" fill="white" stroke="#4A6FFE" stroke-width="0.33686"/>
<path d="M343.758 494.696L344.739 490.773H359.029L360.571 494.696L353.705 498.66C352.678 499.253 351.223 498.907 350.623 498.66L343.758 494.696Z" fill="#F5F5F5"/>
<rect x="0.291729" width="8.91018" height="8.91018" rx="1.85273" transform="matrix(0.866025 -0.5 0.866025 0.5 343.938 490.919)" fill="white" stroke="#4A6FFE" stroke-width="0.33686"/>
<path d="M313.953 488.216L314.934 484.293H329.225L330.766 488.216L323.901 492.18C322.874 492.773 321.418 492.427 320.818 492.18L313.953 488.216Z" fill="#F5F5F5"/>
<rect x="0.291729" width="8.91018" height="8.91018" rx="1.85273" transform="matrix(0.866025 -0.5 0.866025 0.5 314.133 484.439)" fill="white" stroke="#4A6FFE" stroke-width="0.33686"/>
<path d="M323.672 494.052L324.653 490.129H338.943L340.485 494.052L333.619 498.016C332.592 498.608 331.137 498.263 330.537 498.016L323.672 494.052Z" fill="#F5F5F5"/>
<rect x="0.291729" width="8.91018" height="8.91018" rx="1.85273" transform="matrix(0.866025 -0.5 0.866025 0.5 323.852 490.275)" fill="white" stroke="#4A6FFE" stroke-width="0.33686"/>
<path d="M334.039 499.88L335.02 495.957H349.311L350.852 499.88L343.987 503.844C342.96 504.437 341.504 504.091 340.904 503.844L334.039 499.88Z" fill="#F5F5F5"/>
<rect x="0.291729" width="8.91018" height="8.91018" rx="1.85273" transform="matrix(0.866025 -0.5 0.866025 0.5 334.219 496.103)" fill="white" stroke="#4A6FFE" stroke-width="0.33686"/>
<path d="M304.883 494.052L305.864 490.129H320.154L321.696 494.052L314.83 498.016C313.803 498.608 312.348 498.263 311.748 498.016L304.883 494.052Z" fill="#F5F5F5"/>
<rect x="0.291729" width="8.91018" height="8.91018" rx="1.85273" transform="matrix(0.866025 -0.5 0.866025 0.5 305.063 490.275)" fill="white" stroke="#4A6FFE" stroke-width="0.33686"/>
<path d="M314.602 499.88L315.582 495.957H329.873L331.414 499.88L324.549 503.844C323.522 504.437 322.066 504.091 321.467 503.844L314.602 499.88Z" fill="#F5F5F5"/>
<rect x="0.291729" width="8.91018" height="8.91018" rx="1.85273" transform="matrix(0.866025 -0.5 0.866025 0.5 314.781 496.103)" fill="white" stroke="#4A6FFE" stroke-width="0.33686"/>
<path d="M324.969 505.712L325.949 501.789H340.24L341.782 505.712L334.916 509.676C333.889 510.269 332.433 509.923 331.834 509.676L324.969 505.712Z" fill="#F5F5F5"/>
<rect x="0.291729" width="8.91018" height="8.91018" rx="1.85273" transform="matrix(0.866025 -0.5 0.866025 0.5 325.148 501.935)" fill="white" stroke="#4A6FFE" stroke-width="0.33686"/>
<path d="M295.164 499.232L296.145 495.309H310.436L311.977 499.232L305.112 503.195C304.085 503.788 302.629 503.442 302.029 503.195L295.164 499.232Z" fill="#F5F5F5"/>
<rect x="0.291729" width="8.91018" height="8.91018" rx="1.85273" transform="matrix(0.866025 -0.5 0.866025 0.5 295.344 495.454)" fill="white" stroke="#4A6FFE" stroke-width="0.33686"/>
<path d="M304.883 505.064L305.864 501.141H320.154L321.696 505.064L314.83 509.027C313.803 509.62 312.348 509.274 311.748 509.027L304.883 505.064Z" fill="#F5F5F5"/>
<rect x="0.291729" width="8.91018" height="8.91018" rx="1.85273" transform="matrix(0.866025 -0.5 0.866025 0.5 305.063 501.286)" fill="white" stroke="#4A6FFE" stroke-width="0.33686"/>
<path d="M315.25 510.896L316.231 506.973H330.522L332.063 510.896L325.198 514.859C324.171 515.452 322.715 515.106 322.115 514.859L315.25 510.896Z" fill="#F5F5F5"/>
<rect x="0.291729" width="8.91018" height="8.91018" rx="1.85273" transform="matrix(0.866025 -0.5 0.866025 0.5 315.43 507.119)" fill="white" stroke="#4A6FFE" stroke-width="0.33686"/>
<path d="M286.094 504.415L287.074 500.492H301.365L302.907 504.415L296.041 508.379C295.014 508.972 293.558 508.626 292.959 508.379L286.094 504.415Z" fill="#F5F5F5"/>
<rect x="0.291729" width="8.91018" height="8.91018" rx="1.85273" transform="matrix(0.866025 -0.5 0.866025 0.5 286.273 500.638)" fill="white" stroke="#4A6FFE" stroke-width="0.33686"/>
<path d="M295.812 510.247L296.793 506.324H311.084L312.625 510.247L305.76 514.211C304.733 514.804 303.277 514.458 302.678 514.211L295.812 510.247Z" fill="#F5F5F5"/>
<rect x="0.291729" width="8.91018" height="8.91018" rx="1.85273" transform="matrix(0.866025 -0.5 0.866025 0.5 295.992 506.47)" fill="white" stroke="#4A6FFE" stroke-width="0.33686"/>
<path d="M306.172 516.079L307.153 512.156H321.443L322.985 516.079L316.119 520.043C315.092 520.636 313.637 520.29 313.037 520.043L306.172 516.079Z" fill="#F5F5F5"/>
<rect x="0.291729" width="8.91018" height="8.91018" rx="1.85273" transform="matrix(0.866025 -0.5 0.866025 0.5 306.352 512.302)" fill="white" stroke="#4A6FFE" stroke-width="0.33686"/>
<path d="M277.02 509.599L278 505.676H292.291L293.832 509.599L286.967 513.562C285.94 514.155 284.484 513.809 283.885 513.562L277.02 509.599Z" fill="#F5F5F5"/>
<rect x="0.291729" width="8.91018" height="8.91018" rx="1.85273" transform="matrix(0.866025 -0.5 0.866025 0.5 277.199 505.822)" fill="white" stroke="#4A6FFE" stroke-width="0.33686"/>
<path d="M286.738 515.431L287.719 511.508H302.01L303.551 515.431L296.686 519.394C295.659 519.987 294.203 519.642 293.604 519.394L286.738 515.431Z" fill="#F5F5F5"/>
<rect x="0.291729" width="8.91018" height="8.91018" rx="1.85273" transform="matrix(0.866025 -0.5 0.866025 0.5 286.918 511.654)" fill="white" stroke="#4A6FFE" stroke-width="0.33686"/>
<path d="M297.109 521.263L298.09 517.34H312.381L313.922 521.263L307.057 525.226C306.03 525.819 304.574 525.474 303.975 525.226L297.109 521.263Z" fill="#F5F5F5"/>
<rect x="0.291729" width="8.91018" height="8.91018" rx="1.85273" transform="matrix(0.866025 -0.5 0.866025 0.5 297.289 517.486)" fill="white" stroke="#4A6FFE" stroke-width="0.33686"/>
<path d="M267.953 514.782L268.934 510.859H283.225L284.766 514.782L277.901 518.746C276.874 519.339 275.418 518.993 274.818 518.746L267.953 514.782Z" fill="#F5F5F5"/>
<rect x="0.291729" width="8.91018" height="8.91018" rx="1.85273" transform="matrix(0.866025 -0.5 0.866025 0.5 268.133 511.005)" fill="white" stroke="#4A6FFE" stroke-width="0.33686"/>
<path d="M277.672 520.614L278.653 516.691H292.943L294.485 520.614L287.619 524.578C286.592 525.171 285.137 524.825 284.537 524.578L277.672 520.614Z" fill="#F5F5F5"/>
<rect x="0.291729" width="8.91018" height="8.91018" rx="1.85273" transform="matrix(0.866025 -0.5 0.866025 0.5 277.852 516.837)" fill="white" stroke="#4A6FFE" stroke-width="0.33686"/>
<path d="M288.035 526.446L289.016 522.523H303.307L304.848 526.446L297.983 530.41C296.956 531.003 295.5 530.657 294.9 530.41L288.035 526.446Z" fill="#F5F5F5"/>
<rect x="0.291729" width="8.91018" height="8.91018" rx="1.85273" transform="matrix(0.866025 -0.5 0.866025 0.5 288.215 522.669)" fill="white" stroke="#4A6FFE" stroke-width="0.33686"/>
<path d="M258.23 519.966L259.211 516.043H273.502L275.043 519.966L268.178 523.93C267.151 524.523 265.695 524.177 265.096 523.93L258.23 519.966Z" fill="#F5F5F5"/>
<rect x="0.291729" width="8.91018" height="8.91018" rx="1.85273" transform="matrix(0.866025 -0.5 0.866025 0.5 258.406 516.189)" fill="white" stroke="#4A6FFE" stroke-width="0.33686"/>
<path d="M267.953 525.798L268.934 521.875H283.225L284.766 525.798L277.901 529.762C276.874 530.355 275.418 530.009 274.818 529.762L267.953 525.798Z" fill="#F5F5F5"/>
<rect x="0.291729" width="8.91018" height="8.91018" rx="1.85273" transform="matrix(0.866025 -0.5 0.866025 0.5 268.133 522.021)" fill="white" stroke="#4A6FFE" stroke-width="0.33686"/>
<path d="M278.316 531.63L279.297 527.707H293.588L295.129 531.63L288.264 535.594C287.237 536.187 285.781 535.841 285.182 535.594L278.316 531.63Z" fill="#F5F5F5"/>
<rect x="0.291729" width="8.91018" height="8.91018" rx="1.85273" transform="matrix(0.866025 -0.5 0.866025 0.5 278.496 527.853)" fill="white" stroke="#4A6FFE" stroke-width="0.33686"/>
<path d="M354.547 425.871V415.665L253.046 360.016L130.946 430.51V453.705L218.16 503.806L354.547 425.871Z" fill="white"/>
<path d="M218.16 503.806L354.547 425.871V415.665L253.046 360.016L130.946 430.51V453.705L218.16 503.806ZM218.16 503.806V491.338" stroke="#4A6FFE" stroke-width="0.778901"/>
<path d="M327.641 254.226L303.518 240.309L260.839 264.949L245.994 257.588L97.5454 343.295V411.024L187.814 463.141V338.656L327.641 254.226Z" fill="white"/>
<path d="M160.495 322.883L187.814 338.656M160.495 322.883V334.945C160.851 341.439 158.78 355.171 147.647 358.14C136.513 361.109 109.607 349.48 97.5454 343.295M160.495 322.883L260.839 264.949M187.814 338.656L327.641 254.226L303.518 240.309L260.839 264.949M187.814 338.656V463.141L97.5454 411.024V343.295M97.5454 343.295L245.994 257.588L260.839 264.949" stroke="#4A6FFE" stroke-width="0.778901"/>
<path d="M366.609 411.025V264.432L319.291 238L175.482 321.028V466.735L222.8 494.054L366.609 411.025Z" fill="white"/>
<path d="M366.609 264.432V411.025L222.8 494.054M366.609 264.432L222.8 348.347M366.609 264.432L319.291 238L175.482 321.028M222.8 494.054L175.482 466.735C175.482 418.166 175.482 321.028 175.482 321.028M222.8 494.054V348.347M175.482 321.028L222.8 348.347" stroke="#4A6FFE" stroke-width="0.778901"/>
<circle cx="3.30115" cy="3.30115" r="2.9117" transform="matrix(-0.866025 -0.5 -2.20305e-08 1 160.637 394.629)" stroke="#4A6FFE" stroke-width="0.778901"/>
<circle cx="3.30115" cy="3.30115" r="2.9117" transform="matrix(-0.866025 -0.5 -2.20305e-08 1 160.637 403.816)" stroke="#4A6FFE" stroke-width="0.778901"/>
<circle cx="3.30115" cy="3.30115" r="2.9117" transform="matrix(-0.866025 -0.5 -2.20305e-08 1 160.637 413.004)" stroke="#4A6FFE" stroke-width="0.778901"/>
<circle cx="3.30115" cy="3.30115" r="2.9117" transform="matrix(-0.866025 -0.5 -2.20305e-08 1 152.93 390.18)" stroke="#4A6FFE" stroke-width="0.778901"/>
<circle cx="3.30115" cy="3.30115" r="2.9117" transform="matrix(-0.866025 -0.5 -2.20305e-08 1 152.934 399.367)" stroke="#4A6FFE" stroke-width="0.778901"/>
<circle cx="3.30115" cy="3.30115" r="2.9117" transform="matrix(-0.866025 -0.5 -2.20305e-08 1 152.934 408.555)" stroke="#4A6FFE" stroke-width="0.778901"/>
<circle cx="3.30115" cy="3.30115" r="2.9117" transform="matrix(-0.866025 -0.5 -2.20305e-08 1 145.223 385.734)" stroke="#4A6FFE" stroke-width="0.778901"/>
<circle cx="3.30115" cy="3.30115" r="2.9117" transform="matrix(-0.866025 -0.5 -2.20305e-08 1 145.223 394.918)" stroke="#4A6FFE" stroke-width="0.778901"/>
<circle cx="3.30115" cy="3.30115" r="2.9117" transform="matrix(-0.866025 -0.5 -2.20305e-08 1 145.223 404.105)" stroke="#4A6FFE" stroke-width="0.778901"/>
<circle cx="3.30115" cy="3.30115" r="2.9117" transform="matrix(-0.866025 -0.5 -2.20305e-08 1 137.52 381.281)" stroke="#4A6FFE" stroke-width="0.778901"/>
<circle cx="3.30115" cy="3.30115" r="2.9117" transform="matrix(-0.866025 -0.5 -2.20305e-08 1 137.516 390.469)" stroke="#4A6FFE" stroke-width="0.778901"/>
<circle cx="3.30115" cy="3.30115" r="2.9117" transform="matrix(-0.866025 -0.5 -2.20305e-08 1 137.516 399.652)" stroke="#4A6FFE" stroke-width="0.778901"/>
<circle cx="3.30115" cy="3.30115" r="2.9117" transform="matrix(-0.866025 -0.5 -2.20305e-08 1 129.812 376.832)" stroke="#4A6FFE" stroke-width="0.778901"/>
<circle cx="3.30115" cy="3.30115" r="2.9117" transform="matrix(-0.866025 -0.5 -2.20305e-08 1 129.809 386.02)" stroke="#4A6FFE" stroke-width="0.778901"/>
<circle cx="3.30115" cy="3.30115" r="2.9117" transform="matrix(-0.866025 -0.5 -2.20305e-08 1 129.809 395.207)" stroke="#4A6FFE" stroke-width="0.778901"/>
<circle cx="3.30115" cy="3.30115" r="2.9117" transform="matrix(-0.866025 -0.5 -2.20305e-08 1 122.105 372.383)" stroke="#4A6FFE" stroke-width="0.778901"/>
<circle cx="3.30115" cy="3.30115" r="2.9117" transform="matrix(-0.866025 -0.5 -2.20305e-08 1 122.105 381.57)" stroke="#4A6FFE" stroke-width="0.778901"/>
<circle cx="3.30115" cy="3.30115" r="2.9117" transform="matrix(-0.866025 -0.5 -2.20305e-08 1 122.105 390.754)" stroke="#4A6FFE" stroke-width="0.778901"/>
<circle cx="3.30115" cy="3.30115" r="2.9117" transform="matrix(-0.866025 -0.5 -2.20305e-08 1 114.398 367.934)" stroke="#4A6FFE" stroke-width="0.778901"/>
<circle cx="3.30115" cy="3.30115" r="2.9117" transform="matrix(-0.866025 -0.5 -2.20305e-08 1 114.398 377.121)" stroke="#4A6FFE" stroke-width="0.778901"/>
<circle cx="3.30115" cy="3.30115" r="2.9117" transform="matrix(-0.866025 -0.5 -2.20305e-08 1 114.398 386.305)" stroke="#4A6FFE" stroke-width="0.778901"/>
<rect width="138.955" height="93.6743" transform="matrix(-0.866025 0.5 2.20305e-08 1 353.621 281.133)" fill="#4A6FFE"/>
<path d="M307.141 418.155C304.468 419.698 302.052 421.975 300.305 424.406C298.558 426.836 297.485 429.413 297.485 431.567C297.485 433.72 298.558 435.058 300.305 435.471C302.052 435.885 304.468 435.371 307.141 433.828C309.813 432.285 312.23 430.008 313.977 427.578C315.724 425.147 316.796 422.571 316.796 420.417C316.796 418.264 315.724 416.926 313.977 416.512C312.23 416.099 309.813 416.612 307.141 418.155Z" fill="#4A6FFE" stroke="#878787" stroke-width="0.154503"/>
<circle cx="2.57655" cy="2.57655" r="2.57655" transform="matrix(-0.866025 0.5 2.20305e-08 1 292.953 431.055)" fill="#D9D9D9"/>
<circle cx="2.57655" cy="2.57655" r="2.57655" transform="matrix(-0.866025 0.5 2.20305e-08 1 325.789 412.098)" fill="#D9D9D9"/>
<circle cx="2.61462" cy="2.61462" r="2.61462" transform="matrix(0.866025 0.5 -2.20305e-08 1 254.344 523.734)" fill="#4A6FFE"/>
<circle cx="2.61462" cy="2.61462" r="2.22517" transform="matrix(0.866025 0.5 -2.20305e-08 1 253.047 524.383)" fill="white" stroke="#4A6FFE" stroke-width="0.778901"/>
<path d="M255.535 530.265C256.28 529.835 256.536 528.882 256.105 528.137C255.675 527.392 254.722 527.137 253.977 527.567L255.535 530.265ZM230.696 542.807L229.917 541.458L229.858 541.492L229.802 541.532L230.696 542.807ZM93.0133 468.181L92.2212 469.523L92.2299 469.528L92.2387 469.533L93.0133 468.181ZM95.9289 456.025L96.2173 457.556L95.9289 456.025ZM254.756 528.916L253.977 527.567L229.917 541.458L230.696 542.807L231.475 544.156L255.535 530.265L254.756 528.916ZM230.696 542.807L229.802 541.532C228.91 542.158 225.634 543.323 221.518 540.578L220.654 541.875L219.789 543.171C225.003 546.646 229.675 545.427 231.591 544.082L230.696 542.807ZM220.654 541.875L221.518 540.578C216.794 537.43 134.338 490.068 93.7878 466.83L93.0133 468.181L92.2387 469.533C132.894 492.832 215.183 540.1 219.789 543.171L220.654 541.875ZM93.0133 468.181L93.8053 466.84C92.5417 466.094 91.312 465.179 90.3822 464.218C89.4228 463.225 88.9374 462.344 88.8471 461.67C88.7787 461.159 88.8988 460.541 89.8674 459.809C90.9225 459.011 92.8786 458.185 96.2173 457.556L95.9289 456.025L95.6405 454.494C92.1215 455.157 89.6094 456.098 87.9884 457.324C86.2809 458.615 85.5169 460.277 85.7591 462.084C85.9793 463.727 86.9992 465.201 88.1424 466.383C89.315 467.596 90.7852 468.675 92.2212 469.523L93.0133 468.181ZM95.9289 456.025L96.2173 457.556C119.423 453.184 125.906 435.209 129.039 429.569L127.677 428.812L126.315 428.056C122.969 434.079 117.141 450.443 95.6405 454.494L95.9289 456.025Z" fill="#F5F5F5"/>
<path d="M260.207 392.824L260.207 391.594L268.006 387.091L268.006 388.321L260.207 392.824Z" fill="#F5F5F5"/>
<path d="M259.287 386.311L259.287 387.601L252.672 394.762L252.672 393.516L259.221 386.546L259.221 387.495L252.672 388.08L252.672 386.789L259.287 386.311Z" fill="#F5F5F5"/>
<path d="M332.222 325.65L332.11 318.395L333.419 317.639L333.307 325.023L332.222 325.65ZM332.768 329.108C332.505 329.26 332.288 329.289 332.117 329.195C331.95 329.094 331.867 328.892 331.867 328.588C331.867 328.279 331.95 327.981 332.117 327.692C332.288 327.396 332.505 327.172 332.768 327.02C333.035 326.866 333.252 326.839 333.419 326.94C333.586 327.037 333.669 327.239 333.669 327.548C333.669 327.852 333.586 328.15 333.419 328.444C333.252 328.732 333.035 328.954 332.768 329.108Z" fill="#F5F5F5"/>
<path d="M323.516 337.044L323.516 326.156L324.66 325.495L324.66 326.801L324.758 326.744C324.903 326.357 325.085 325.994 325.304 325.655C325.523 325.311 325.773 324.999 326.054 324.721C326.334 324.443 326.639 324.208 326.968 324.019C327.568 323.672 328.09 323.545 328.533 323.639C328.976 323.733 329.32 324.025 329.565 324.516C329.811 325.007 329.933 325.678 329.933 326.528L329.933 326.536C329.933 327.391 329.811 328.206 329.565 328.981C329.32 329.75 328.976 330.437 328.533 331.042C328.09 331.647 327.568 332.123 326.968 332.469C326.643 332.657 326.337 332.776 326.047 332.826C325.762 332.869 325.51 332.848 325.291 332.762C325.072 332.676 324.894 332.525 324.758 332.31L324.66 332.367L324.66 336.383L323.516 337.044ZM326.705 331.452C327.139 331.201 327.507 330.867 327.809 330.45C328.116 330.025 328.351 329.537 328.513 328.988C328.68 328.436 328.763 327.844 328.763 327.211L328.763 327.204C328.763 326.566 328.68 326.07 328.513 325.716C328.351 325.354 328.116 325.14 327.809 325.074C327.507 325.001 327.139 325.089 326.705 325.34C326.28 325.585 325.911 325.922 325.6 326.35C325.293 326.775 325.054 327.265 324.883 327.819C324.717 328.365 324.633 328.955 324.633 329.588L324.633 329.596C324.633 330.223 324.717 330.717 324.883 331.076C325.054 331.433 325.293 331.647 325.6 331.718C325.911 331.786 326.28 331.697 326.705 331.452Z" fill="#F5F5F5"/>
<path d="M315.422 338.99L315.422 330.828L316.566 330.168L316.566 336.257L317.171 335.908L316.395 336.842L320.163 328.091L321.307 327.43L321.307 335.593L320.163 336.253L320.163 330.164L319.564 330.509L320.34 329.575L316.566 338.33L315.422 338.99Z" fill="#F5F5F5"/>
<path d="M306.492 344.146L305.348 344.807L305.348 336.645L306.735 335.843L309.254 340.722L309.359 340.661L311.884 332.871L313.219 332.1L313.219 340.263L312.074 340.923L312.074 335.115L311.95 335.187L309.72 342.054L308.839 342.563L306.61 338.269L306.492 338.338L306.492 344.146Z" fill="#F5F5F5"/>
<path d="M297.414 352.13L297.986 347.525L299.288 346.773L298.262 351.64L297.414 352.13Z" fill="#F5F5F5"/>
<path d="M296.814 341.572L296.814 342.665L294.526 343.987L294.526 351.056L293.382 351.716L293.382 344.647L291.094 345.968L291.094 344.875L296.814 341.572Z" fill="#F5F5F5"/>
<path d="M287.304 355.368C286.634 355.755 286.055 355.917 285.568 355.854C285.086 355.788 284.713 355.518 284.45 355.042C284.192 354.563 284.063 353.896 284.063 353.041L284.063 353.033C284.063 352.193 284.192 351.379 284.45 350.592C284.713 349.803 285.084 349.093 285.562 348.463C286.04 347.827 286.596 347.326 287.232 346.959C287.876 346.587 288.429 346.44 288.889 346.519C289.349 346.592 289.702 346.867 289.948 347.343C290.198 347.811 290.322 348.452 290.322 349.267L290.322 349.776L284.654 353.049L284.654 351.993L289.737 349.059L289.172 350.349L289.172 349.833C289.172 349.19 289.088 348.709 288.922 348.39C288.76 348.069 288.532 347.892 288.238 347.859C287.944 347.826 287.607 347.92 287.225 348.14C286.848 348.358 286.509 348.66 286.206 349.047C285.908 349.432 285.671 349.885 285.496 350.406C285.321 350.928 285.233 351.495 285.233 352.107L285.233 352.623C285.233 353.206 285.318 353.652 285.489 353.964C285.66 354.275 285.904 354.451 286.219 354.491C286.535 354.527 286.905 354.422 287.331 354.176C287.651 353.991 287.927 353.781 288.159 353.546C288.396 353.308 288.591 353.066 288.744 352.821C288.898 352.575 289.007 352.35 289.073 352.145L289.093 352.065L290.237 351.405L290.224 351.473C290.162 351.787 290.053 352.121 289.895 352.475C289.742 352.827 289.542 353.18 289.297 353.535C289.051 353.884 288.762 354.218 288.429 354.537C288.096 354.851 287.721 355.128 287.304 355.368Z" fill="#F5F5F5"/>
<path d="M277.152 361.088L277.152 352.926L280.151 351.195C280.822 350.807 281.343 350.699 281.716 350.868C282.088 351.038 282.275 351.444 282.275 352.087L282.275 352.102C282.275 352.507 282.165 352.942 281.946 353.408C281.727 353.869 281.451 354.236 281.117 354.509L281.117 354.623C281.42 354.494 281.681 354.452 281.9 354.497C282.119 354.538 282.288 354.653 282.406 354.843C282.525 355.028 282.584 355.28 282.584 355.598L282.584 355.614C282.584 356.322 282.371 357.012 281.946 357.683C281.521 358.353 280.927 358.909 280.164 359.349L277.152 361.088ZM278.296 359.334L280.118 358.283C280.548 358.034 280.872 357.738 281.091 357.394C281.31 357.05 281.42 356.673 281.42 356.263L281.42 356.248C281.42 355.812 281.293 355.569 281.039 355.519C280.789 355.466 280.409 355.586 279.901 355.879L278.296 356.806L278.296 359.334ZM278.296 355.712L279.802 354.843C280.263 354.577 280.6 354.284 280.815 353.962C281.03 353.636 281.137 353.28 281.137 352.895L281.137 352.88C281.137 352.531 281.045 352.303 280.861 352.197C280.677 352.091 280.385 352.153 279.986 352.383L278.296 353.359L278.296 355.712Z" fill="#F5F5F5"/>
<path d="M269.063 365.756L269.062 357.594L270.207 356.933L270.207 363.023L270.812 362.673L270.036 363.607L273.803 354.857L274.948 354.196L274.948 362.358L273.803 363.019L273.803 356.929L273.205 357.275L273.981 356.341L270.207 365.095L269.063 365.756Z" fill="#F5F5F5"/>
<path d="M260.785 373.263L260.785 362.375L261.929 361.714L261.929 363.02L262.028 362.963C262.173 362.576 262.355 362.213 262.574 361.874C262.793 361.529 263.043 361.218 263.323 360.94C263.604 360.661 263.909 360.427 264.237 360.237C264.838 359.891 265.36 359.764 265.802 359.858C266.245 359.951 266.589 360.244 266.835 360.735C267.08 361.226 267.203 361.896 267.203 362.747L267.203 362.754C267.203 363.61 267.08 364.425 266.835 365.199C266.589 365.969 266.245 366.656 265.802 367.261C265.36 367.866 264.838 368.341 264.237 368.688C263.913 368.875 263.606 368.994 263.317 369.045C263.032 369.088 262.78 369.067 262.561 368.98C262.341 368.894 262.164 368.744 262.028 368.529L261.929 368.586L261.929 372.602L260.785 373.263ZM263.974 367.671C264.408 367.42 264.777 367.086 265.079 366.668C265.386 366.243 265.62 365.756 265.783 365.207C265.949 364.655 266.032 364.063 266.032 363.43L266.032 363.423C266.032 362.785 265.949 362.289 265.783 361.934C265.62 361.572 265.386 361.359 265.079 361.293C264.777 361.219 264.408 361.308 263.974 361.559C263.549 361.804 263.181 362.141 262.87 362.568C262.563 362.994 262.324 363.483 262.153 364.038C261.986 364.584 261.903 365.174 261.903 365.807L261.903 365.814C261.903 366.442 261.986 366.935 262.153 367.295C262.324 367.652 262.563 367.866 262.87 367.936C263.181 368.005 263.549 367.916 263.974 367.671Z" fill="#F5F5F5"/>
<path d="M252.848 375.119L252.848 366.957L258.568 363.654L258.568 371.816L257.424 372.477L257.424 365.408L253.992 367.39L253.992 374.459L252.848 375.119Z" fill="#F5F5F5"/>
</svg>
