<svg width="183" height="186" viewBox="0 0 183 186" fill="none" xmlns="http://www.w3.org/2000/svg">
<path d="M70.5 1L140 41.4674V144.533L70.5 185L1 144.533V41.4674L70.5 1Z" fill="#B1BFF9"/>
<path d="M140 41.4674L70.5 1L1 41.4674M140 41.4674L70.5 81.9347M140 41.4674V144.533L70.5 185M70.5 81.9347L1 41.4674M70.5 81.9347V185M1 41.4674V144.533L70.5 185" stroke="#4A6FFE"/>
<path d="M155 103L182 118.615V158.385L155 174L128 158.385V118.615L155 103Z" fill="#B1BFF9"/>
<path d="M182 118.615L155 103L128 118.615M182 118.615L155 134.23M182 118.615V158.385L155 174M155 134.23L128 118.615M155 134.23V174M128 118.615V158.385L155 174" stroke="#4A6FFE"/>
</svg>
