<svg width="24" height="24" viewBox="0 0 24 24" fill="none" xmlns="http://www.w3.org/2000/svg">
<path d="M12.2599 13.2333L3.71949 18.9225C3.64977 18.9689 3.56877 18.9955 3.48512 18.9995C3.40146 19.0035 3.31829 18.9847 3.24446 18.9452C3.17063 18.9057 3.1089 18.847 3.06585 18.7752C3.0228 18.7034 3.00004 18.6213 3 18.5376V5.46237C3.00004 5.37869 3.0228 5.29659 3.06585 5.22482C3.1089 5.15304 3.17063 5.09427 3.24446 5.05477C3.31829 5.01528 3.40146 4.99653 3.48512 5.00053C3.56877 5.00453 3.64977 5.03112 3.71949 5.07748L12.2599 10.7667V5.46237C12.2599 5.37869 12.2827 5.29659 12.3257 5.22482C12.3688 5.15304 12.4305 5.09427 12.5043 5.05477C12.5781 5.01528 12.6613 4.99653 12.745 5.00053C12.8286 5.00453 12.9096 5.03112 12.9793 5.07748L22.7939 11.6151C22.8573 11.6574 22.9093 11.7146 22.9452 11.7817C22.9812 11.8489 23 11.9238 23 12C23 12.0762 22.9812 12.1511 22.9452 12.2183C22.9093 12.2854 22.8573 12.3426 22.7939 12.3849L12.9793 18.9225C12.9096 18.9689 12.8286 18.9955 12.745 18.9995C12.6613 19.0035 12.5781 18.9847 12.5043 18.9452C12.4305 18.9057 12.3688 18.847 12.3257 18.7752C12.2827 18.7034 12.2599 18.6213 12.2599 18.5376V13.2333Z" fill="#F5F5F5"/>
</svg>
